<svg version="1.1" xmlns="http://www.w3.org/2000/svg" style="display: block;" viewBox="322.667 52 1416 1944" width="1416" height="1944" preserveAspectRatio="none">
<path transform="translate(0,0)" fill="rgb(0,0,0)" d="M 1029.82 89.2105 C 1051.81 103.619 1076.66 124.849 1099.13 140.841 C 1114.42 151.628 1129.85 162.228 1145.41 172.638 C 1156.47 180.089 1171.25 189.126 1180.32 198.339 C 1182.83 211.79 1182.08 227.602 1181.92 241.435 C 1226.69 289.072 1238.77 328.478 1240.89 393.046 C 1289.42 407.647 1360.77 435.81 1339.38 502.255 C 1317.53 570.139 1227.86 607.371 1162.59 622.204 L 1156.65 636.976 C 1205.52 662.939 1230.55 696.063 1248.51 747.995 C 1276.82 752.813 1304.3 759.901 1332.07 766.902 C 1347.13 770.697 1365.61 770.479 1380.94 775.27 C 1434.26 787.581 1483.53 816.432 1515.33 861.646 C 1542.04 899.639 1557.91 955.237 1553.3 1001.75 C 1583.83 1021.56 1611.14 1044.53 1630.39 1076.06 L 1644.65 1075.65 C 1670.08 1103.69 1687.91 1130.07 1691.7 1168.6 C 1692.32 1174.86 1690.9 1193.9 1692.36 1198.07 C 1702.39 1226.66 1701.03 1249.5 1700.29 1279.69 L 1669.91 1277.99 C 1674.53 1291.69 1676.83 1306.45 1680.45 1320.19 C 1693.31 1369 1695.17 1409.78 1671.64 1456.35 C 1637.95 1523.02 1580.34 1575.65 1524.07 1623.26 C 1508.42 1636.5 1487.05 1652.8 1472.61 1666.25 C 1467.41 1683.45 1464.09 1694.67 1456.19 1710.87 C 1434.09 1756.14 1394.43 1766.76 1354.17 1788.41 C 1329.45 1801.7 1330.07 1837.1 1298.79 1838.19 C 1298.81 1848.88 1299.2 1863.12 1298.64 1873.58 C 1211.98 1926.32 1097.96 1939.91 998.432 1939.05 L 982.753 1939.38 C 906.816 1935.74 859.541 1929.37 786.197 1906.1 C 784.729 1929.05 783.023 1937.8 771.469 1957.75 C 756.789 1942.96 744.887 1924.2 728.933 1911.79 C 715.466 1901.31 695.396 1895.42 680.389 1887.34 C 638.121 1865.42 625.356 1820.48 644.167 1777.67 C 632.993 1756.51 630.582 1737.58 637.606 1714.17 C 639.165 1709.1 641.163 1704.17 643.579 1699.45 C 631.496 1674.27 628.966 1645.48 643.59 1620.48 C 632.98 1597.43 630.25 1575.87 639.309 1551.37 C 640.807 1547.34 642.54 1543.41 644.498 1539.59 C 630.527 1511.92 632.621 1485.25 645.85 1457.77 C 630.867 1428.51 632.076 1406.17 646.006 1376.65 C 631.975 1349.44 634.375 1323.28 648.379 1296.57 C 646.794 1289.96 645.739 1285.24 644.749 1278.53 C 608.163 1334.29 568.741 1377.77 500.786 1391.65 C 419.133 1408.34 363.293 1363.37 384.062 1279.24 C 377.067 1279.28 370.337 1279.31 363.35 1279.66 C 358.986 1246.5 359.025 1222.16 368.058 1189.98 C 369.906 1183.4 367.387 1169.63 368.911 1162.42 C 373.968 1123.32 393.296 1098.85 415.882 1068.79 C 420.547 1068.15 425.355 1067.42 430.016 1066.87 C 451.06 1039.38 476.636 1013.64 508.285 998.43 C 504.985 941.06 515.828 891.494 554.775 846.932 C 578.136 820.204 619.228 793.789 653.317 783.273 C 645.782 759.689 650.259 740.417 672.812 727.803 C 669.314 700.837 686.87 686.643 711.039 680.936 C 721.514 658.217 741.358 650.75 765.297 654.899 C 779.652 640.2 792.992 637.576 812.353 643.464 C 835.127 636.543 850.882 640.27 868.049 656.521 C 880.892 647.196 890.001 642.104 904.632 635.566 C 902.42 631.04 901.237 628.076 899.513 623.332 C 829.416 607.176 714.012 565.294 711.787 477.116 C 710.613 430.553 777.845 400.23 816.983 393.246 C 817.14 331.631 832.43 286.718 875.635 241.676 C 874.729 227.612 874.604 211.172 878.415 197.508 C 888.854 187.778 925.13 165.382 938.849 156.328 C 972.363 134.21 998.684 114.672 1029.82 89.2105 z M 1341.43 1495.05 C 1352.01 1509.03 1349.01 1546.43 1349.02 1565.56 C 1364.22 1561.94 1366.93 1561.09 1376.56 1548.46 C 1392.42 1526.95 1407.05 1504.56 1420.39 1481.4 C 1410.62 1447.66 1417.98 1419.45 1424.49 1387.38 C 1419.13 1385.36 1413.51 1383.64 1409.49 1379.43 C 1394.23 1363.45 1391.17 1338.96 1391.52 1318.09 C 1384.43 1312.64 1377.89 1306.52 1371.99 1299.81 C 1371.64 1319.94 1370.87 1340.82 1371.86 1360.86 C 1372.55 1375.02 1376.27 1390.24 1377.11 1404.27 C 1378.83 1438.25 1365.83 1471.33 1341.43 1495.05 z"></path>
<path transform="translate(0,0)" fill="rgb(246,229,87)" d="M 982.753 1939.38 C 983.787 1887.65 984.315 1835.9 984.335 1784.16 L 984.538 1738.5 C 984.529 1730.46 981.773 1715.64 990.039 1712.06 C 992.189 1712.28 991.128 1711.92 992.988 1714.1 C 995.689 1724.61 994.114 1741.32 994.519 1752.5 C 996.764 1814.51 996.132 1877.12 998.432 1939.05 L 982.753 1939.38 z"></path>
<path transform="translate(0,0)" fill="rgb(254,202,152)" d="M 1604.32 1290.39 C 1616.81 1288.84 1637.52 1289.86 1650.16 1290.3 C 1659.01 1325.41 1675.02 1372.74 1666.18 1408.19 C 1646.27 1488.05 1574.58 1549.01 1515.71 1601.51 C 1496.59 1618.57 1475.55 1633.38 1457.52 1651.51 C 1448.67 1660.63 1444.41 1691.28 1432.09 1710.05 C 1408.17 1751.85 1359.53 1750.38 1328.81 1782.43 C 1324.48 1786.96 1302.97 1817.15 1301.4 1817.4 C 1298.18 1817.9 1294.91 1816.94 1292.47 1814.78 C 1274.29 1798.68 1330.88 1741.69 1342.22 1729.53 C 1320.28 1737.58 1298.72 1750.75 1283.07 1768.69 C 1278.86 1773.51 1271.65 1786.33 1267.03 1792.7 C 1263.19 1793.96 1264.98 1794.07 1261.47 1792.74 C 1256.67 1786.26 1257.6 1769.27 1261.18 1762.88 C 1274.69 1738.8 1296.4 1719.95 1314.14 1698.98 C 1286.77 1708.85 1272.93 1716.33 1252.59 1737.36 C 1248.62 1742.34 1236.11 1764.45 1232.51 1765.3 C 1227.2 1760.14 1225.94 1754.48 1227.01 1747.23 C 1232.43 1710.68 1267.54 1688.21 1289.81 1662.71 C 1256.87 1675.08 1235.19 1684.74 1215.48 1715.59 C 1213.22 1719.13 1208.99 1728.77 1206.47 1730.32 L 1204.59 1729.52 C 1197.46 1719.96 1200.03 1699.65 1205.46 1689.87 C 1229.33 1646.88 1281.64 1628.97 1325.26 1613.87 C 1312.67 1608.19 1300.89 1605.36 1287.51 1602.43 L 1280.22 1577.79 C 1305.35 1582.84 1339.33 1592.62 1363.96 1586.05 C 1389.66 1579.19 1415.25 1532.64 1429.25 1511.01 C 1451.33 1477.28 1472.84 1443.18 1493.76 1408.72 C 1472.23 1426 1462.26 1436.14 1443.19 1455.78 C 1454.79 1357.81 1504.45 1300.21 1604.32 1290.39 z"></path>
<path transform="translate(0,0)" fill="rgb(254,202,152)" d="M 770.268 937.397 C 794.106 934.144 805.846 938.085 812.03 961.688 C 790.397 961.819 770.519 969.844 751.612 979.749 C 767.396 981.46 781.874 981.016 797.707 980.983 C 812.173 980.953 826.611 987.369 824.992 1004.32 C 822.024 1006.36 811.223 1005.06 803.928 1007.09 C 787.605 1011.63 778.486 1016.7 764.171 1025.09 C 780.326 1025.37 797.398 1023.89 813.46 1025.43 C 819.267 1026.07 824.445 1027.66 827.421 1033.06 C 832.613 1042.49 835.63 1049.11 822.236 1049.39 C 800.345 1049.84 785.032 1057.76 767.133 1069.34 C 781.967 1068.23 840.869 1061.69 827.953 1092.72 C 824.58 1094.53 815.131 1096.26 811.092 1097.09 C 786.773 1102.1 765.206 1114.34 743.003 1124.88 C 721.333 1135.16 700.45 1139.45 677.018 1142.75 C 690.867 1145.7 704.941 1147.48 719.089 1148.05 C 670.25 1178.81 655.166 1220.29 625.981 1268.16 C 614.927 1286.54 602.047 1303.77 587.536 1319.57 C 567.491 1340.48 547.431 1354.57 519.975 1364.82 C 484.469 1378.62 417.312 1382.17 403.994 1335 C 381.094 1253.89 470.156 1201.49 525.023 1162.44 C 561.266 1136.64 598.042 1111.08 625.289 1076.54 C 643.137 1053.91 641.342 1021.55 647.235 995.029 C 651.827 975.264 658.988 956.184 668.533 938.278 C 674.12 942.086 680.011 946.666 685.477 950.746 C 682.785 956.12 680.162 961.708 677.536 967.132 C 686.244 963.178 695.437 957.742 704.708 953.612 C 726.315 943.987 746.854 939.968 770.268 937.397 z"></path>
<path transform="translate(0,0)" fill="rgb(254,225,4)" d="M 1030.09 112.985 C 1057.75 135.55 1086.4 156.874 1115.96 176.895 C 1131.05 187.237 1149.24 198.046 1163.32 208.933 C 1163.6 265.868 1151.85 322.22 1128.84 374.298 C 1057.08 366.916 999.404 363.317 926.922 374.793 C 906.528 322.895 891.257 264.547 894.51 208.316 C 915.843 192.519 939.986 179.665 961.754 164.297 C 964.893 162.081 977.723 152.902 980.91 151.534 C 986.976 146.038 1005.58 132.791 1012.82 127.286 C 1018.5 122.526 1024.29 117.564 1030.09 112.985 z"></path>
<path transform="translate(0,0)" fill="rgb(246,229,87)" d="M 1012.82 127.286 C 1012.01 137.681 990.88 153.743 980.91 151.534 C 986.976 146.038 1005.58 132.791 1012.82 127.286 z"></path>
<path transform="translate(0,0)" fill="rgb(0,0,0)" d="M 1029.85 143.757 C 1066.63 174.229 1097.75 195.517 1139.13 220.111 C 1139.44 264.423 1127.41 308.398 1112.8 349.811 C 1087.45 345.593 1053.57 343.946 1028.1 344.121 C 995.366 343.489 973.679 347.123 942.581 349.316 C 927.157 308.188 918.9 264.72 918.169 220.802 C 961.053 192.886 989.278 180.213 1029.85 143.757 z"></path>
<path transform="translate(0,0)" fill="rgb(253,166,3)" d="M 985.745 321.817 C 982.81 320.345 979.642 318.625 977.004 316.691 C 966.463 309.114 959.481 297.554 957.681 284.698 C 954.072 259.997 965.851 247.217 983.411 234.721 C 983.506 234.653 987.111 228.495 988.11 227.194 C 1020.48 230.78 1023.15 181.603 1028.94 178.221 L 1031.96 179.351 C 1051.56 190.679 1068.4 203.52 1081.4 222.22 C 1107.22 259.367 1105.68 314.554 1054.85 328.468 C 1087.66 287.184 1074.8 237.99 1034.9 207.076 L 1033.65 206.116 C 1050.63 241.41 1036.06 248.472 1011.52 270.549 C 985.56 251.798 989.475 291.516 994.648 304.898 C 998.045 313.821 1003.29 321.927 1010.03 328.686 C 1002.03 327.228 992.714 326.009 985.745 321.817 z"></path>
<path transform="translate(0,0)" fill="rgb(254,225,4)" d="M 985.745 321.817 C 982.81 320.345 979.642 318.625 977.004 316.691 C 966.463 309.114 959.481 297.554 957.681 284.698 C 954.072 259.997 965.851 247.217 983.411 234.721 C 983.506 234.653 987.111 228.495 988.11 227.194 C 1020.48 230.78 1023.15 181.603 1028.94 178.221 L 1031.96 179.351 C 1030.42 202.36 1025.29 219.09 1007.89 235.462 C 995.171 247.421 966.77 255.289 965.888 274.531 C 965.152 290.603 976.162 306.018 985.783 317.846 C 986.764 319.049 986.118 320.635 985.745 321.817 z"></path>
<path transform="translate(0,0)" fill="rgb(254,202,152)" d="M 1025.21 505.2 C 1044.11 502.564 1049.79 513.56 1059.35 527.524 C 1090.43 516.662 1135.42 507.651 1153.6 543.984 C 1138.42 571.462 1133.3 581.66 1122.46 611.317 C 1132.22 602.238 1138.07 596.233 1146.33 585.791 C 1144.04 624.878 1128.62 647.591 1097.66 671.388 C 1078.79 685.887 1062.33 693.315 1038.75 696.061 C 1010.54 696.836 989.487 690.435 966.743 673.139 C 929.41 644.75 920.205 629.07 913.022 585.663 C 920.855 593.536 928.598 601.498 936.25 609.547 C 925.413 580.946 919.659 569.924 906.631 543.164 C 927.002 507.755 969.765 516.836 1001.35 527.603 C 1009.45 515.691 1011.99 511.134 1025.21 505.2 z"></path>
<path transform="translate(0,0)" fill="rgb(0,0,0)" d="M 1016.31 595.212 C 1025.48 595.361 1034.88 596.026 1044.16 595.779 C 1058.35 595.402 1070.65 611.483 1079.45 621.796 C 1068.79 620.398 1055.4 617.016 1045.35 616.866 C 1015.54 616.781 1009.15 616.599 979.912 621.998 C 990.548 610.55 1000.66 598.991 1016.31 595.212 z"></path>
<path transform="translate(0,0)" fill="rgb(0,0,0)" d="M 1014.9 546.799 C 1044.72 555.496 1047.51 535.063 1060.68 569.857 C 1054.59 571.988 1048.6 574.451 1042.6 576.834 C 1038.99 578.666 1035.15 580.017 1031.35 581.472 C 1019.37 576.553 1013.35 573.982 1000.69 570.327 C 1004.31 560.507 1007.13 554.02 1014.9 546.799 z"></path>
<path transform="translate(0,0)" fill="rgb(0,0,0)" d="M 1009.23 636.577 C 1028.65 634.989 1044.79 635.861 1064.08 637.089 C 1059.74 644.154 1057.1 647.36 1050.55 652.359 C 1028.88 662.857 1010.96 657.074 998.832 637.035 L 1009.23 636.577 z"></path>
<path transform="translate(0,0)" fill="rgb(254,225,4)" d="M 1339.14 788.72 C 1400.47 797.187 1457.59 819.025 1495.71 870.219 C 1527.12 912.4 1537.02 961.674 1532.01 1013.17 C 1555.49 1026.23 1582.15 1046.3 1598.33 1067.9 C 1593.06 1067.65 1586.71 1067.19 1581.52 1067.29 C 1571.06 1068.28 1561.12 1069.12 1550.72 1070.85 C 1516.01 1078.42 1489.1 1092.54 1459.65 1111.82 C 1449.96 1118.17 1437.13 1127.26 1427.36 1132.86 L 1424.53 1127.31 C 1478.22 1069.54 1517.55 987.98 1454.72 916.996 C 1425.2 883.655 1379.12 876.042 1336.18 875.122 C 1337.03 863.54 1337.65 851.942 1338.05 840.336 L 1338.75 815.627 L 1339.14 788.72 z"></path>
<path transform="translate(0,0)" fill="rgb(252,229,24)" d="M 1339.14 788.72 C 1400.47 797.187 1457.59 819.025 1495.71 870.219 C 1527.12 912.4 1537.02 961.674 1532.01 1013.17 C 1555.49 1026.23 1582.15 1046.3 1598.33 1067.9 C 1593.06 1067.65 1586.71 1067.19 1581.52 1067.29 C 1571.06 1068.28 1561.12 1069.12 1550.72 1070.85 C 1546.16 1063.77 1526.28 1053.52 1516.65 1056.04 L 1513.77 1053.49 C 1511.52 1052.89 1512.46 1053.48 1510.95 1051.69 C 1512.36 1046.9 1517.92 1037.98 1520.67 1030.86 C 1517.56 1017.99 1519.82 1001.95 1519.11 988.605 C 1517.1 950.654 1506.58 919.444 1484.85 888.567 C 1453.2 843.574 1390.64 824.083 1338.75 815.627 L 1339.14 788.72 z"></path>
<path transform="translate(0,0)" fill="rgb(246,229,87)" d="M 1513.77 1053.49 C 1522.92 1048.65 1529.92 1044.87 1539.83 1041.47 C 1552.56 1048.76 1564.57 1056.67 1577.98 1062.74 C 1579.03 1063.21 1580.9 1066.22 1581.52 1067.29 C 1571.06 1068.28 1561.12 1069.12 1550.72 1070.85 C 1546.16 1063.77 1526.28 1053.52 1516.65 1056.04 L 1513.77 1053.49 z"></path>
<path transform="translate(0,0)" fill="rgb(246,229,87)" d="M 1338.75 815.627 C 1390.64 824.083 1453.2 843.574 1484.85 888.567 C 1506.58 919.444 1517.1 950.654 1519.11 988.605 C 1519.82 1001.95 1517.56 1017.99 1520.67 1030.86 C 1517.92 1037.98 1512.36 1046.9 1510.95 1051.69 C 1512.46 1053.48 1511.52 1052.89 1513.77 1053.49 L 1516.65 1056.04 C 1510.87 1058.39 1501.24 1063.81 1494.63 1066.85 C 1498 1054.75 1504.7 1044.26 1506.38 1031.97 C 1515.22 967.07 1499.54 907.996 1441.17 871.76 C 1404.52 849.007 1379.64 846.925 1338.05 840.336 L 1338.75 815.627 z"></path>
<path transform="translate(0,0)" fill="rgb(254,225,4)" d="M 971.294 1538.13 C 988.379 1537.29 1087.14 1535.61 1096.85 1540.1 C 1102.06 1542.52 1106.64 1547.54 1108.61 1552.92 C 1111.59 1561.07 1110.77 1645.59 1109.73 1659.57 C 1109.46 1663.26 1108.95 1666.6 1107.39 1669.99 C 1104.23 1676.85 1098.6 1680.27 1091.82 1682.93 C 1073.42 1685.35 1053.18 1683.85 1034.59 1683.9 C 1016.72 1683.94 997.842 1685.23 980.054 1683.72 C 975.346 1683.31 970.337 1682.23 965.948 1680.47 C 960.186 1678.17 956.218 1673.88 954.093 1668 C 950.756 1658.76 950.479 1559.54 954.935 1550.6 C 958.254 1543.94 964.648 1540.65 971.294 1538.13 z"></path>
<path transform="translate(0,0)" fill="rgb(0,0,0)" d="M 1017.17 1557.8 L 1046.97 1557.57 L 1047.03 1586.42 C 1054.75 1581.23 1062.53 1576.12 1070.36 1571.09 L 1085.89 1595.72 L 1060.67 1610.57 L 1086.28 1626.03 C 1080.91 1633.63 1075.26 1643.11 1070.24 1651.1 C 1063.74 1645.7 1054.35 1639.52 1047.26 1634.56 C 1047.22 1644.06 1046.96 1653.75 1046.81 1663.26 C 1036.91 1663.19 1027 1663.25 1017.1 1663.45 L 1016.99 1634.43 C 1008.68 1639.82 1001.25 1644.76 993.177 1650.58 L 978.115 1625.54 L 1003.53 1610.46 C 995.038 1605.42 986.508 1600.45 977.94 1595.55 C 983.132 1587.62 988.271 1578.93 993.259 1570.82 C 1001.09 1575.71 1009.35 1581.63 1017.01 1586.89 L 1017.17 1557.8 z"></path>
<path transform="translate(0,0)" fill="rgb(252,229,24)" d="M 1542.91 1130.21 C 1577.1 1108.41 1597.57 1103.53 1636.3 1096.77 C 1652.19 1113.9 1663.9 1130.53 1669.53 1153.49 C 1641.32 1140.58 1618.07 1142.5 1588.62 1149.87 C 1619.64 1157.16 1649.43 1165.35 1667.78 1195.1 C 1668.9 1196.91 1669.93 1198.77 1670.89 1200.68 C 1679.12 1214.48 1680.97 1232.8 1681.25 1248.55 C 1659.28 1228.89 1639.18 1221.92 1609.54 1224.17 C 1538.87 1229.54 1483.32 1270.32 1433.79 1316.3 C 1443.77 1292.86 1461.14 1262.04 1480.6 1245.68 C 1513.87 1212.39 1534.95 1204.7 1576.69 1188.63 C 1544.44 1189.78 1516.37 1199.8 1487.3 1212.51 C 1454.26 1229.17 1422.62 1245.91 1389.22 1262.38 C 1400.79 1248.91 1417.28 1233.51 1430.2 1220.91 C 1445.57 1205.59 1467.49 1186.07 1484.12 1172.63 C 1499.42 1159.12 1525.62 1140.67 1542.91 1130.21 z"></path>
<path transform="translate(0,0)" fill="rgb(254,225,4)" d="M 1480.6 1245.68 C 1491.98 1251.79 1509.09 1232.19 1519.19 1227.31 C 1561.62 1206.82 1599.31 1181.88 1648.49 1196.9 C 1653.83 1198.53 1665.87 1201.8 1670.89 1200.68 C 1679.12 1214.48 1680.97 1232.8 1681.25 1248.55 C 1659.28 1228.89 1639.18 1221.92 1609.54 1224.17 C 1538.87 1229.54 1483.32 1270.32 1433.79 1316.3 C 1443.77 1292.86 1461.14 1262.04 1480.6 1245.68 z"></path>
<path transform="translate(0,0)" fill="rgb(246,229,87)" d="M 1562.65 1149.71 L 1562.67 1151.11 C 1549.34 1158.01 1473.94 1195.59 1470.69 1205.52 L 1472.09 1206.81 C 1483.2 1202.45 1505.35 1189.38 1516.54 1194.18 L 1514.45 1193.98 L 1513.86 1195.08 C 1506.19 1197.4 1494.31 1200.21 1488.66 1205.28 C 1487.12 1208.82 1487.29 1208.82 1487.3 1212.51 C 1454.26 1229.17 1422.62 1245.91 1389.22 1262.38 C 1400.79 1248.91 1417.28 1233.51 1430.2 1220.91 C 1442.72 1227.34 1451.34 1216.09 1461 1208.72 C 1472.26 1200.07 1483.97 1192.01 1496.06 1184.55 C 1502.9 1181.86 1514.82 1173.96 1521.88 1170.21 C 1535.33 1163.05 1548.68 1155.87 1562.65 1149.71 z"></path>
<path transform="translate(0,0)" fill="rgb(246,229,87)" d="M 1542.91 1130.21 C 1543.44 1132.27 1544.58 1136.4 1543 1137.97 C 1530.6 1150.3 1523.39 1147.66 1514.54 1164.38 C 1508.82 1168.19 1490.74 1175.3 1484.12 1172.63 C 1499.42 1159.12 1525.62 1140.67 1542.91 1130.21 z"></path>
<path transform="translate(0,0)" fill="rgb(254,225,4)" d="M 1496.06 1184.55 L 1494.37 1183.84 C 1514.42 1172.04 1534.86 1160.92 1555.66 1150.51 C 1561.42 1147.57 1565.85 1146.79 1571.73 1143.2 C 1574.17 1138.99 1569.4 1140.58 1570.21 1133.69 C 1573.35 1129.85 1580.36 1128.15 1584.95 1129.82 C 1585.56 1132.16 1585.58 1132.42 1586.68 1134.54 L 1588.93 1134.76 C 1595.17 1126.29 1596.84 1136.63 1606.65 1128.62 C 1608.53 1127.09 1607.91 1127.57 1610.34 1127.56 L 1611.04 1128.6 L 1610 1130.86 C 1605.73 1133.8 1587.68 1137.28 1581.15 1141.37 C 1576.83 1144.09 1568.28 1146.31 1562.65 1149.71 C 1548.68 1155.87 1535.33 1163.05 1521.88 1170.21 C 1514.82 1173.96 1502.9 1181.86 1496.06 1184.55 z"></path>
<path transform="translate(0,0)" fill="rgb(253,6,1)" d="M 803.413 568.743 C 775.275 553.182 743.912 529.831 734.378 497.431 C 730.697 484.922 730.822 470.225 737.082 458.557 C 751.263 432.128 790.192 421.026 817.013 413.563 C 921.631 384.453 1193.24 378.716 1289.66 432.902 C 1304.03 440.977 1317.48 451.935 1322.08 468.514 C 1326.45 484.285 1321.13 501.036 1313.03 514.689 C 1302.55 532.379 1285.32 548.322 1267.97 559.126 L 1264.02 557.47 C 1279.61 539.904 1298.07 518.091 1296.83 492.984 C 1296.28 481.899 1291.27 472.433 1283 465.195 C 1229.64 418.474 1036.55 413.953 964.351 419.384 C 914.659 423.122 800.296 430.96 767.04 470.277 C 760.014 478.584 756.658 488.48 757.657 499.346 C 760.237 527.406 782.846 551.628 803.413 568.743 z"></path>
<path transform="translate(0,0)" fill="rgb(206,205,205)" d="M 1198.93 964.273 C 1215.69 965.887 1286.37 972.512 1297.55 977.872 C 1300.89 979.477 1303.84 983.606 1305.04 987.062 C 1307.06 992.899 1290.93 1119.06 1287.84 1124.59 C 1284.73 1130.17 1279.72 1132.29 1273.85 1134.01 C 1245.68 1132.9 1209.86 1126.13 1181.45 1122.62 C 1168.59 1121.03 1166.19 1109.7 1167.79 1098.11 C 1173.47 1057.08 1177.84 1014.98 1184.78 974.197 C 1185.65 969.072 1194.67 965.428 1198.93 964.273 z"></path>
<path transform="translate(0,0)" fill="rgb(0,0,0)" d="M 1203.4 985.872 C 1230.46 988.805 1257.48 992.083 1284.45 995.706 C 1281.33 1033.57 1273.66 1074.72 1269.7 1113.26 C 1242.63 1109.94 1215.59 1106.46 1188.57 1102.81 C 1191.39 1067.66 1199.27 1022.24 1203.4 985.872 z"></path>
<path transform="translate(0,0)" fill="rgb(252,229,24)" d="M 886.884 846.633 C 895.734 839.17 897.621 836.991 908.948 833.868 C 949.787 851.82 997.762 937.47 1013.38 979.707 C 1021.59 1001.91 1026.51 1018.61 1031.91 1041.88 C 1049.89 967.845 1081.58 898.563 1138.27 845.968 C 1159.84 825.954 1187.72 866.981 1196.41 883.381 C 1115.96 927.961 1059.13 978.865 1031.59 1069.98 C 1026.84 1055.11 1022.98 1042.26 1016.6 1027.96 C 985.436 958.133 929.038 911.646 862.744 876.9 C 867.264 870.142 870.939 864.541 876.098 858.284 C 879.091 854.538 883.499 850.179 886.884 846.633 z"></path>
<path transform="translate(0,0)" fill="rgb(246,229,87)" d="M 886.884 846.633 C 900.442 852.074 940.382 876.545 942.348 890.117 C 936.463 898.311 889.99 862.326 876.098 858.284 C 879.091 854.538 883.499 850.179 886.884 846.633 z"></path>
<path transform="translate(0,0)" fill="rgb(254,225,4)" d="M 864.71 1152.41 C 867.219 1152.02 866.329 1152.01 868.777 1152.49 C 872.014 1157.81 872.487 1173.11 873.484 1179.97 C 881.917 1236.58 889.848 1293.26 897.277 1350.01 C 898.557 1359.39 906.745 1410.14 905.401 1416.43 C 902.041 1417.15 902.286 1417.12 898.967 1416.18 C 888.535 1390.81 861.285 1388.26 851.98 1413.29 L 851.64 1421.1 C 849.152 1424.69 848.426 1424.13 843.816 1426.35 C 832.099 1338.48 813.539 1249.74 801.308 1161.71 C 821.972 1158.44 843.994 1154.97 864.71 1152.41 z"></path>
<path transform="translate(0,0)" fill="rgb(254,225,4)" d="M 1191.19 1156.76 C 1213.58 1159.92 1236 1162.85 1258.45 1165.56 C 1256.85 1181.41 1253.01 1202.21 1250.43 1218.39 L 1230.53 1337.12 L 1221.45 1393.29 C 1220.42 1399.62 1218.55 1421.12 1213.63 1423.52 C 1207.92 1420.27 1208.99 1417.65 1209.08 1411.91 C 1204.27 1394.55 1183.38 1387.25 1169.69 1400.06 C 1163.15 1406.18 1168.52 1414.4 1155.44 1415.55 L 1154.55 1414.32 C 1154.55 1399.55 1163.36 1342.53 1165.95 1325.87 C 1174.57 1270.3 1181.63 1211.95 1191.19 1156.76 z"></path>
<path transform="translate(0,0)" fill="rgb(254,202,152)" d="M 929.77 684.521 C 932.856 687.415 943.77 701.973 947.101 706.136 C 961.658 724.621 977.16 742.915 994.35 758.966 C 1011.88 775.334 1042.39 778.634 1061.51 763.289 C 1087.56 742.378 1110.09 711.243 1130.56 684.694 C 1131.18 705.624 1130.82 728.115 1130.69 749.166 C 1121.55 760.591 1112.67 772.226 1104.06 784.062 C 1074.47 825.014 1056.41 856.684 1031.23 899.182 C 1024.5 886.966 1018.41 874.673 1011.33 862.548 C 987.401 821.709 960.079 782.951 929.658 746.685 L 929.77 684.521 z"></path>
<path transform="translate(0,0)" fill="rgb(254,225,4)" d="M 602.881 831.512 C 612.884 824.214 623.648 817.343 635.03 812.387 C 633.509 825.613 633.786 830.758 635.633 844.023 C 637.46 851.016 638.834 856.454 641.397 863.188 C 622.594 875.41 608.631 886.182 595.668 904.719 C 563.575 950.615 560.663 1002.65 591.609 1049.71 C 593.141 1052.08 594.737 1054.41 596.393 1056.7 C 548.429 1044.73 516.462 1041.07 467.487 1053.77 C 473.469 1047.84 479.348 1041.64 486.144 1036.69 C 492.452 1031.68 497.883 1027.88 504.556 1023.33 C 512.687 1017.65 521.196 1013.35 530.041 1008.96 C 528.878 998.287 528.072 987.868 527.935 977.12 C 527.199 919.577 554.738 863.599 602.881 831.512 z"></path>
<path transform="translate(0,0)" fill="rgb(252,229,24)" d="M 615.432 825.034 C 615.74 830.721 617.607 837.635 612.738 841.567 C 551.968 890.641 537.044 944.11 546.54 1019.07 C 540.879 1020.56 534.568 1022.26 528.977 1023.86 C 516.979 1027.3 515.731 1029.04 504.556 1023.33 C 512.687 1017.65 521.196 1013.35 530.041 1008.96 C 528.878 998.287 528.072 987.868 527.935 977.12 C 527.199 919.577 554.738 863.599 602.881 831.512 L 605.174 831.991 C 608.621 829.713 612.04 827.394 615.432 825.034 z"></path>
<path transform="translate(0,0)" fill="rgb(246,229,87)" d="M 602.881 831.512 C 612.884 824.214 623.648 817.343 635.03 812.387 C 633.509 825.613 633.786 830.758 635.633 844.023 C 605.923 855.52 574.192 892.099 561.994 921.513 C 544.68 963.259 549.141 985.655 555.473 1027.95 C 538.829 1027.51 526.601 1029.02 510.724 1034.05 C 503.616 1036.29 493.081 1040.01 486.144 1036.69 C 492.452 1031.68 497.883 1027.88 504.556 1023.33 C 515.731 1029.04 516.979 1027.3 528.977 1023.86 C 534.568 1022.26 540.879 1020.56 546.54 1019.07 C 537.044 944.11 551.968 890.641 612.738 841.567 C 617.607 837.635 615.74 830.721 615.432 825.034 C 612.04 827.394 608.621 829.713 605.174 831.991 L 602.881 831.512 z"></path>
<path transform="translate(0,0)" fill="rgb(254,225,4)" d="M 425.981 1088.3 C 474.184 1081.33 512.165 1090.04 556.424 1107.49 C 554.092 1109.51 551.292 1111.66 548.863 1113.62 C 531.712 1126.65 513.953 1138.86 495.645 1150.21 C 449.17 1179 409.616 1198.2 380.184 1247.47 C 380.453 1174.45 412.031 1160.33 472.183 1130.16 C 447.407 1130.42 433.366 1130.78 409.717 1139.69 C 407.811 1138.53 408.629 1139.34 407.453 1137.08 C 407.859 1132.91 410.458 1129.89 412.831 1126.25 C 409.184 1129.11 407.838 1130.66 403.487 1131.77 C 400.269 1131.25 401.404 1132.01 399.244 1130.23 C 406.264 1115.41 416.311 1101.5 425.981 1088.3 z"></path>
<path transform="translate(0,0)" fill="rgb(248,227,189)" d="M 425.981 1088.3 C 474.184 1081.33 512.165 1090.04 556.424 1107.49 C 554.092 1109.51 551.292 1111.66 548.863 1113.62 C 518.497 1102.04 473.892 1088.04 442.913 1102.45 C 428.172 1109.31 423.605 1114.49 412.831 1126.25 C 409.184 1129.11 407.838 1130.66 403.487 1131.77 C 400.269 1131.25 401.404 1132.01 399.244 1130.23 C 406.264 1115.41 416.311 1101.5 425.981 1088.3 z"></path>
<path transform="translate(0,0)" fill="rgb(254,225,4)" d="M 1253.62 770.727 C 1272.24 774.471 1290.77 778.671 1309.18 783.323 L 1290.49 941.642 L 1277.5 939.933 C 1259.7 937.2 1240.71 935.275 1222.7 932.782 L 1227.29 898.489 C 1234.56 895.868 1243.78 892.619 1248.7 886.392 C 1261.18 870.58 1256.48 791.942 1253.62 770.727 z"></path>
<path transform="translate(0,0)" fill="rgb(254,225,4)" d="M 870.723 1559.49 C 886.686 1562.55 912.646 1565.49 928.965 1566.03 L 928.866 1596.55 L 928.859 1621.61 C 928.884 1633.76 928.823 1645.91 928.676 1658.06 C 898.496 1655.7 867.175 1652.42 837.543 1646.25 L 849.704 1613.11 L 858.9 1589.31 C 862.679 1579.48 866.476 1569.08 870.723 1559.49 z"></path>
<path transform="translate(0,0)" fill="rgb(254,225,4)" d="M 870.723 1559.49 C 886.686 1562.55 912.646 1565.49 928.965 1566.03 L 928.866 1596.55 C 921.396 1599.42 869.933 1590.87 858.9 1589.31 C 862.679 1579.48 866.476 1569.08 870.723 1559.49 z"></path>
<path transform="translate(0,0)" fill="rgb(246,229,87)" d="M 858.9 1589.31 C 869.933 1590.87 921.396 1599.42 928.866 1596.55 L 928.859 1621.61 C 905.108 1618.82 872.395 1617.82 849.704 1613.11 L 858.9 1589.31 z"></path>
<path transform="translate(0,0)" fill="rgb(254,225,4)" d="M 1133.93 1565.93 C 1153.08 1564.01 1172.16 1561.49 1191.15 1558.37 C 1194.94 1568.55 1198.64 1578.76 1202.24 1589 C 1205.1 1596.84 1208.04 1604.64 1211.07 1612.41 C 1213.98 1619.89 1217.47 1628.29 1219.79 1635.88 C 1217.97 1637.59 1214.07 1641.23 1211.9 1642.09 C 1190.59 1650.49 1156.37 1654.99 1133.81 1657.24 L 1133.62 1622.81 L 1133.84 1597.23 C 1133.52 1587.35 1133.87 1575.92 1133.93 1565.93 z"></path>
<path transform="translate(0,0)" fill="rgb(254,225,4)" d="M 1133.93 1565.93 C 1153.08 1564.01 1172.16 1561.49 1191.15 1558.37 C 1194.94 1568.55 1198.64 1578.76 1202.24 1589 C 1195.69 1591.74 1143.33 1597.38 1133.84 1597.23 C 1133.52 1587.35 1133.87 1575.92 1133.93 1565.93 z"></path>
<path transform="translate(0,0)" fill="rgb(246,229,87)" d="M 1202.24 1589 C 1205.1 1596.84 1208.04 1604.64 1211.07 1612.41 C 1195.44 1614.87 1179.63 1616.97 1163.97 1619.41 C 1153.97 1620.96 1143.72 1620.8 1133.62 1622.81 L 1133.84 1597.23 C 1143.33 1597.38 1195.69 1591.74 1202.24 1589 z"></path>
<path transform="translate(0,0)" fill="rgb(254,225,4)" d="M 1351.35 1248.72 C 1352.52 1255.69 1351.75 1278.46 1351.61 1286.07 C 1351.49 1307.44 1350.62 1329.91 1351.26 1351.18 C 1352.34 1387.15 1365.08 1417.94 1348.18 1452.72 C 1335.48 1478.85 1317.62 1489.25 1291.19 1498.88 C 1305.36 1479.83 1313.87 1463.62 1322.32 1441.7 C 1328.78 1422.29 1330.75 1410.63 1333.52 1390.81 C 1314.03 1410.69 1302.08 1420.94 1275.81 1430.36 C 1307.5 1392.9 1330.51 1337.34 1342.61 1290.09 C 1345.69 1278.05 1347.62 1261.55 1350.82 1250.5 L 1351.35 1248.72 z"></path>
<path transform="translate(0,0)" fill="rgb(248,227,189)" d="M 660.253 1472.73 C 669.088 1482.08 677.972 1494.43 688.266 1501.3 C 724.389 1525.42 772.681 1541.3 765.802 1594.99 C 765.411 1598.04 765.527 1601.62 763.111 1603.5 C 728.857 1556.39 631.052 1557.29 660.253 1472.73 z"></path>
<path transform="translate(0,0)" fill="rgb(248,227,189)" d="M 661.037 1391.67 C 668.576 1398.56 673.952 1409.09 684.433 1417.18 C 711.932 1438.4 746.469 1448.84 761.364 1482.94 C 765.889 1493.29 768.872 1515.32 764.806 1525.41 L 763.858 1525.19 C 731.357 1478.88 680.114 1485.81 658.448 1436.22 C 652.476 1422.55 654.859 1405.22 661.037 1391.67 z"></path>
<path transform="translate(0,0)" fill="rgb(248,227,189)" d="M 659.11 1553.8 C 665.793 1562.64 677.382 1576.18 686.303 1582.7 C 709.247 1599.48 736.35 1607.7 754.336 1631.36 C 766.906 1647.89 768.443 1664.63 765.635 1684.47 L 764.115 1685.25 C 755.016 1672.71 740.946 1660.32 727.073 1653.57 C 682.625 1631.94 639.29 1613.26 659.11 1553.8 z"></path>
<path transform="translate(0,0)" fill="rgb(248,227,189)" d="M 658.353 1634.63 C 665.598 1642.62 674.711 1654.39 683.389 1660.7 C 711.211 1680.92 746.914 1690.64 761.866 1724.98 C 766.091 1734.68 768.738 1755.28 764.757 1765.04 C 756.509 1753.91 743.693 1741.28 731.598 1734.58 C 689.75 1711.39 637.515 1696.09 658.353 1634.63 z"></path>
<path transform="translate(0,0)" fill="rgb(248,227,189)" d="M 659.355 1793.52 C 667.486 1799.77 675.823 1812.32 685.098 1818.09 C 724.836 1842.82 777.885 1863.43 765.058 1921.9 C 756.422 1908.54 744.884 1897.31 731.305 1889.04 C 707.659 1874.44 674.566 1867.54 660.855 1839.97 C 653.314 1824.81 654.432 1809.06 659.355 1793.52 z"></path>
<path transform="translate(0,0)" fill="rgb(248,227,189)" d="M 657.699 1714.56 C 664.382 1718.92 675.045 1734.18 683.917 1740.3 C 724.362 1768.19 774.908 1782.69 764.455 1843.29 C 757.438 1834.38 746.649 1822.11 737.101 1816 C 696.2 1789.82 637.469 1778.53 657.699 1714.56 z"></path>
<path transform="translate(0,0)" fill="rgb(248,227,189)" d="M 662.332 1313.72 C 670.044 1322.4 674.244 1331.19 683.427 1338.83 C 707.617 1358.93 737.059 1368.48 754.801 1395.88 C 762.571 1407.88 767.354 1427.6 764.313 1441.42 L 762.745 1441.46 C 731.242 1400.28 682.917 1404.36 661.036 1359.19 C 653.849 1344.36 656.431 1328.58 662.332 1313.72 z"></path>
<path transform="translate(0,0)" fill="rgb(206,205,205)" d="M 900.77 1439.77 C 919.556 1446.28 930.52 1458.88 933.26 1478.98 C 935.154 1492.07 931.742 1505.37 923.781 1515.94 C 915.106 1527.04 902.293 1534.14 888.281 1535.61 C 857.291 1538.95 832.805 1517.21 830.516 1486.28 C 831.008 1466.09 838.375 1454.13 855.671 1444.26 C 856.809 1452.39 858.001 1460.51 859.246 1468.62 C 856.036 1474.5 853.764 1479.83 853.88 1486.64 C 853.956 1493.61 856.921 1500.24 862.069 1504.94 C 867.955 1510.29 875.747 1513.03 883.682 1512.55 C 901.895 1511.6 916.399 1491.47 909.872 1477.79 C 901.543 1460.33 902.451 1459.25 900.77 1439.77 z"></path>
<path transform="translate(0,0)" fill="rgb(206,205,205)" d="M 1158.88 1438.96 L 1159.76 1439.71 C 1164.86 1460.33 1129.87 1496.89 1168.32 1509.94 C 1175.72 1512.47 1183.83 1511.81 1190.72 1508.11 C 1206.39 1499.86 1209.86 1483.2 1201.56 1468.17 C 1203.01 1460.46 1204.09 1451.57 1205.23 1443.73 C 1222.56 1451.63 1228.39 1465.38 1229.15 1483.46 C 1228.29 1504.32 1219.12 1520.13 1199.65 1528.96 C 1186.77 1534.92 1172.04 1535.44 1158.78 1530.38 C 1145.94 1525.49 1135.19 1516.05 1129.91 1503.22 C 1124.81 1490.52 1125.1 1476.29 1130.69 1463.8 C 1136.79 1450.25 1145.73 1444.05 1158.88 1438.96 z"></path>
<path transform="translate(0,0)" fill="rgb(252,229,24)" d="M 1170.93 671.931 C 1201.75 695.947 1218.94 720.749 1228.76 759.417 C 1231.44 768.855 1232.67 776.376 1234.33 785.991 C 1235.89 802.388 1237 816.809 1236.68 833.251 C 1219.83 797.216 1203.62 770.541 1171.93 744.791 L 1172 724.195 L 1172.03 709.019 L 1170.93 671.931 z"></path>
<path transform="translate(0,0)" fill="rgb(252,229,24)" d="M 1170.93 671.931 C 1201.75 695.947 1218.94 720.749 1228.76 759.417 C 1227.3 759.562 1224.99 760.228 1224.11 759.237 C 1208.34 741.555 1196.72 716.697 1172.03 709.019 L 1170.93 671.931 z"></path>
<path transform="translate(0,0)" fill="rgb(246,229,87)" d="M 1172.03 709.019 C 1196.72 716.697 1208.34 741.555 1224.11 759.237 C 1224.99 760.228 1227.3 759.562 1228.76 759.417 C 1231.44 768.855 1232.67 776.376 1234.33 785.991 C 1226.28 786.532 1220.64 772.13 1216.45 765.391 C 1208.24 752.192 1187.14 727.848 1172 724.195 L 1172.03 709.019 z"></path>
<path transform="translate(0,0)" fill="rgb(246,229,87)" d="M 839.329 730.576 C 851.296 706.098 866.528 688.714 888.117 672.515 C 888.023 682.131 887.471 692.099 887.072 701.734 L 887.012 716.183 L 887.074 739.21 C 857.149 763.262 834.414 795.08 821.356 831.183 C 820.981 813.485 821.331 801.937 823.299 784.148 C 824.918 773.499 827.895 762.364 830.741 751.959 C 833.521 744.17 835.981 738.152 839.329 730.576 z"></path>
<path transform="translate(0,0)" fill="rgb(252,229,24)" d="M 823.299 784.148 L 826.449 783.576 C 829.077 781.935 835.922 769.47 837.559 765.983 C 844.105 752.037 872.534 720.012 887.012 716.183 L 887.074 739.21 C 857.149 763.262 834.414 795.08 821.356 831.183 C 820.981 813.485 821.331 801.937 823.299 784.148 z"></path>
<path transform="translate(0,0)" fill="rgb(252,229,24)" d="M 839.329 730.576 C 851.296 706.098 866.528 688.714 888.117 672.515 C 888.023 682.131 887.471 692.099 887.072 701.734 C 881.99 703.281 852.413 728.008 849.301 733.295 C 843.751 734.729 843.903 733.629 839.329 730.576 z"></path>
<path transform="translate(0,0)" fill="rgb(246,229,87)" d="M 839.329 730.576 C 843.903 733.629 843.751 734.729 849.301 733.295 C 842.17 742.777 840.809 749.733 830.741 751.959 C 833.521 744.17 835.981 738.152 839.329 730.576 z"></path>
<path transform="translate(0,0)" fill="rgb(248,227,189)" d="M 672.167 1249.86 C 678.198 1256.08 683.665 1264.58 691.149 1269.87 C 715.931 1287.37 740.477 1296.1 755.393 1324.72 C 760.779 1335.06 767.564 1357.09 764.033 1368.35 L 762.825 1368.31 C 734.724 1330.72 691.603 1329.59 670.568 1289.78 C 663.898 1277.16 667.199 1262.68 672.167 1249.86 z"></path>
<path transform="translate(0,0)" fill="rgb(206,205,205)" d="M 858.728 958.478 C 869.329 958.147 875.016 964.335 876.475 974.443 C 881.377 1008.38 885.824 1042.4 890.566 1076.36 C 891.699 1084.47 893.759 1095.78 893.712 1103.82 C 893.689 1106.99 892.655 1110.07 890.762 1112.61 C 884.456 1120.93 850.297 1123.18 837.954 1125.04 L 837.962 1124.15 C 845.251 1117.56 849.346 1112.7 853.708 1104.01 C 860.246 1103.06 866.228 1101.96 872.718 1100.7 C 871.645 1087.89 868.902 1071.53 867.178 1058.49 L 856.925 978.774 L 843.166 980.361 C 841.303 974.141 839.596 967.165 837.906 960.838 C 845.108 959.736 851.461 959.122 858.728 958.478 z"></path>
<path transform="translate(0,0)" fill="rgb(248,227,189)" d="M 680.138 807.123 C 708.374 809.129 738.888 837.196 753.255 860.219 C 763.319 876.348 766.892 890.012 767.801 908.684 L 761.602 901.326 C 750.561 889.257 744.142 884.041 729.919 874.641 C 710.935 861.795 678.422 853.786 668.342 831.591 C 663.555 821.05 669.173 810.66 680.138 807.123 z"></path>
<path transform="translate(0,0)" fill="rgb(248,227,189)" d="M 687.681 745.161 C 705.042 745.414 723.637 758.264 735.351 770.243 C 757.709 793.107 770.097 817.622 770.081 849.72 L 763.031 838.999 C 747.23 816.794 723.663 800.71 699.281 789.57 C 686.649 783.798 662.64 772.03 672.557 754.766 C 676.128 748.549 681.08 746.755 687.681 745.161 z"></path>
<path transform="translate(0,0)" fill="rgb(206,205,205)" d="M 1030.11 1150.74 C 1044.01 1150.98 1041.87 1158.94 1041.77 1169.89 L 1081.06 1169.88 C 1083.82 1172.6 1087.31 1177.55 1087.34 1181.4 C 1087.44 1196.13 1051.79 1192.05 1041.92 1191.92 C 1042.03 1197.06 1042.2 1200.22 1041.52 1205.37 C 1039.46 1208.31 1034.24 1213.99 1030.18 1210.79 C 1024.51 1206.3 1024.93 1199.53 1024.48 1193.04 L 1023.02 1191.93 C 1009.29 1191.98 961.294 1194.98 951.243 1188.66 C 948.989 1187.24 947.107 1185.15 946.718 1182.42 C 946.241 1179.07 948.093 1175.77 950.344 1173.44 C 951.815 1171.92 953.103 1170.99 955.2 1170.44 C 966.49 1167.5 1009.89 1169.75 1024.23 1169.83 C 1024.28 1167.7 1024.34 1165.58 1024.41 1163.46 C 1024.6 1156.39 1024.29 1155.31 1030.11 1150.74 z"></path>
<path transform="translate(0,0)" fill="rgb(206,205,205)" d="M 1028.97 1329.98 C 1043.83 1329.38 1041.89 1336.17 1041.67 1348.12 C 1055.44 1348.13 1103.85 1342.63 1080.94 1369.76 C 1068.11 1370.15 1054.77 1370.08 1041.89 1370.17 C 1042.06 1378.71 1043.25 1384.68 1034.57 1389.24 C 1023.42 1389.13 1024.25 1378.37 1024.41 1370.43 C 1011.15 1369.92 955.816 1371.55 952.273 1368.38 C 920.806 1340.16 1017.56 1348.16 1024.11 1348.19 C 1024.34 1340.21 1022.52 1335.67 1028.97 1329.98 z"></path>
<path transform="translate(0,0)" fill="rgb(253,6,1)" d="M 876.871 266.74 C 885.572 276.021 875.996 325.045 875.28 337.369 C 874.449 351.662 874.651 366.245 876.865 380.579 C 864.561 382.366 853.404 384.569 841.214 387.014 C 839.938 387.217 838.562 387.254 837.257 387.339 L 836.043 385.734 C 835.687 340.397 849.882 302.464 876.871 266.74 z"></path>
<path transform="translate(0,0)" fill="rgb(253,6,1)" d="M 1179.29 266.451 C 1202.62 283.889 1225.22 357.683 1220.79 386.398 L 1219.06 387.404 L 1181.77 380.601 C 1182.89 357.939 1183.86 335.286 1179.64 312.871 C 1178.29 305.71 1176.39 297.896 1176.32 290.649 C 1176.26 282.784 1178 274.242 1179.29 266.451 z"></path>
<path transform="translate(0,0)" fill="rgb(248,227,189)" d="M 712.866 701.154 C 747.498 700.131 775.14 742.991 778.485 773.866 C 779.264 781.054 778.862 786.386 778.101 793.559 L 770.639 781.169 C 756.753 761.425 738.697 745.907 718.119 733.394 C 713.352 730.495 692.626 723.973 691.943 719.296 C 690.492 709.367 704.868 703.146 712.866 701.154 z"></path>
<path transform="translate(0,0)" fill="rgb(254,225,4)" d="M 1155.13 1695.31 C 1156.27 1695.09 1157.84 1695.04 1159.04 1694.96 C 1161.09 1697.9 1164.2 1720.48 1165.91 1726.81 C 1177.15 1768.56 1201.42 1803.94 1232.94 1832.46 L 1216.38 1823.49 C 1173.14 1797.13 1144.98 1747.72 1133.85 1699.39 L 1155.13 1695.31 z"></path>
<path transform="translate(0,0)" fill="rgb(248,227,189)" d="M 715.141 1209 C 719.177 1211.43 726.01 1217.3 729.404 1220.68 C 751.6 1242.75 760.32 1262.23 760.903 1292.82 C 756.814 1287.66 752.641 1283.36 748.119 1278.59 C 726.908 1259.47 711.635 1258.11 688.423 1233.62 C 697.116 1222.24 703.423 1216.83 715.141 1209 z"></path>
<path transform="translate(0,0)" fill="rgb(254,225,4)" d="M 1238.32 1524.66 C 1243.63 1532.07 1263.98 1595.54 1267.61 1607.5 C 1259.13 1612.08 1251.76 1616.12 1243.53 1621.23 C 1243.03 1621.4 1242.47 1621.14 1241.95 1621.05 C 1239.82 1616.91 1235.45 1603.3 1233.65 1598.2 L 1216.02 1548.26 C 1226.5 1541.34 1231.36 1534.84 1238.32 1524.66 z"></path>
<path transform="translate(0,0)" fill="rgb(206,205,205)" d="M 1063.09 1318.05 C 1107.33 1317.53 1113.04 1312.89 1112.95 1362.55 C 1112.88 1402.33 1104.14 1399.55 1070.04 1399.16 C 1063 1399.21 1056.94 1394.63 1057.88 1387.27 C 1063.82 1376.99 1079.64 1388 1092.21 1382.81 C 1094.72 1380.59 1095.72 1375.48 1095.78 1372.58 C 1095.93 1365.08 1098.29 1338.31 1092.2 1334.42 C 1090.06 1333.05 1063.49 1333.83 1059.15 1333.89 C 1059 1331.4 1058.93 1328.91 1058.92 1326.41 C 1058.95 1322.14 1060.09 1321.03 1063.09 1318.05 z"></path>
<path transform="translate(0,0)" fill="rgb(206,205,205)" d="M 1062.95 1140.17 C 1106.07 1139.82 1113.7 1133.3 1112.86 1183.95 C 1112.21 1223.81 1106.84 1221.31 1070.75 1220.94 C 1067.18 1221.07 1066.78 1221.19 1063.15 1220.48 C 1058.84 1217.52 1057.84 1212.68 1059.86 1208.07 C 1068.56 1201.42 1087.42 1210.44 1095.14 1202.6 C 1096.35 1198.97 1096.92 1165.28 1096.04 1161.23 C 1093.47 1149.55 1070.7 1160.85 1060.49 1154.57 C 1056.65 1149.33 1059.1 1144.34 1062.95 1140.17 z"></path>
<path transform="translate(0,0)" fill="rgb(254,225,4)" d="M 840.676 1685.53 C 850.052 1687.49 859.455 1689.31 868.884 1691 C 858.989 1726.97 836.054 1763.44 812.05 1791.59 C 807.404 1796.93 800.878 1802.72 795.609 1807.64 C 818.869 1767.19 829.738 1730.32 840.676 1685.53 z"></path>
<path transform="translate(0,0)" fill="rgb(254,225,4)" d="M 802.226 815.666 C 805.801 828.86 802.587 861.42 809.898 876.01 C 815.454 887.097 822.957 888.991 833.592 892.934 C 834.325 902.29 835.742 911.681 837.182 920.949 C 832.887 921.625 827.632 922.003 823.235 922.439 C 820.761 923.009 820.754 922.846 818.197 922.446 C 807.799 914.139 803.122 910.609 790.439 907.935 C 789.178 877.831 789.329 843.384 802.226 815.666 z"></path>
<path transform="translate(0,0)" fill="rgb(248,227,189)" d="M 679.854 876.784 C 705.829 880.761 726.257 895.294 744.333 913.66 C 738.667 914.593 732.565 915.897 726.886 917.008 C 716.74 919.79 708.603 923.426 699.016 927.705 C 683.979 917.572 661.155 893.689 679.854 876.784 z"></path>
<path transform="translate(0,0)" fill="rgb(248,227,189)" d="M 746.32 672.174 C 780.118 668.261 804.31 706.133 799.027 736.848 C 798.447 740.223 798.085 743.769 795.167 745.908 C 792.327 744.734 792.746 743.814 790.939 740.152 C 777.921 714.807 756.51 694.767 730.36 683.453 C 736.316 676.403 737.858 675.428 746.32 672.174 z"></path>
<path transform="translate(0,0)" fill="rgb(246,229,87)" d="M 791.124 1607.48 C 794.335 1599.2 797.48 1590.9 800.559 1582.58 C 806.708 1584.88 828.051 1589.67 829.943 1590.79 C 827.303 1597.97 823.691 1608.92 820.782 1615.65 C 817.633 1624.96 814.712 1633.84 810.921 1642.93 C 779.58 1635.3 779.39 1638.35 791.124 1607.48 z"></path>
<path transform="translate(0,0)" fill="rgb(254,225,4)" d="M 810.921 1642.93 C 779.58 1635.3 779.39 1638.35 791.124 1607.48 C 808.287 1622.52 804.11 1612.95 820.782 1615.65 C 817.633 1624.96 814.712 1633.84 810.921 1642.93 z"></path>
<path transform="translate(0,0)" fill="rgb(254,225,4)" d="M 1325.64 1519.94 L 1327.4 1520.34 C 1329.36 1528.88 1328.86 1553.15 1328.78 1562.56 C 1314.09 1560.64 1296.59 1555.82 1280.84 1553.31 L 1272.1 1551.82 L 1267.07 1539.32 C 1287.12 1534.59 1306.72 1528.11 1325.64 1519.94 z"></path>
<path transform="translate(0,0)" fill="rgb(254,225,4)" d="M 820.909 1526.94 C 828.073 1537.49 833.653 1543.92 844.658 1550.89 C 839.552 1564.11 834.646 1577.42 829.943 1590.79 C 828.051 1589.67 806.708 1584.88 800.559 1582.58 C 806.049 1566.95 814.455 1541.21 820.909 1526.94 z"></path>
<path transform="translate(0,0)" fill="rgb(206,205,205)" d="M 1387.54 1001.97 C 1387.27 1009.14 1384.83 1018.82 1383.75 1026.28 C 1379.08 1058.61 1371.49 1090.35 1365.9 1122.52 C 1364.59 1130.09 1363.17 1139.11 1360.99 1146.38 C 1352.72 1107.55 1364.86 1033.94 1387.54 1001.97 z"></path>
<path transform="translate(0,0)" fill="rgb(206,205,205)" d="M 985.112 1388.82 C 988.095 1388.88 990.768 1388.46 992.911 1390.25 C 994.27 1404.98 993.994 1429.28 994.279 1444.83 C 994.631 1464.16 996.934 1493.86 995.669 1512.12 C 990.904 1512.29 989.475 1512.53 984.928 1511.49 C 982.752 1505.02 985.084 1402.22 985.112 1388.82 z"></path>
<path transform="translate(0,0)" fill="rgb(206,205,205)" d="M 985.044 1210.7 C 988.251 1210.71 988.907 1210.79 992.075 1211.34 C 994.361 1216.45 994.315 1317.25 994.35 1330.59 C 990.618 1330.6 987.463 1331.12 985.163 1328.9 C 984.178 1317.3 984.803 1297.86 984.861 1285.51 L 985.044 1210.7 z"></path>
<path transform="translate(0,0)" fill="rgb(248,227,189)" d="M 790.399 659.123 C 812.95 655.803 830.171 674.242 825.799 696.791 C 824.99 700.962 822.001 705.824 819.899 709.602 C 819.294 708.742 814.073 698.658 813.089 696.913 C 804.034 680.866 797.265 675.366 783.268 664.254 C 784.884 661.518 787.163 660.972 790.399 659.123 z"></path>
<path transform="translate(0,0)" fill="rgb(206,205,205)" d="M 985.359 1057.82 C 993.164 1066.52 994.135 1140.14 994.161 1153.25 C 990.773 1153.17 987.848 1153.55 985.434 1151.87 C 984.559 1140.86 985.132 1126.15 985.214 1114.7 L 985.359 1057.82 z"></path>
<path transform="translate(0,0)" fill="rgb(248,227,189)" d="M 754.087 1176.94 C 761.228 1182.32 760.066 1215.67 759.791 1225.05 L 752.235 1214 C 745.993 1205.99 740.25 1200.49 733.104 1193.34 C 740.432 1186.68 745.993 1182.62 754.087 1176.94 z"></path>
<path transform="translate(0,0)" fill="rgb(248,227,189)" d="M 830.457 657.654 C 837.384 658.945 851.425 660.897 852.975 668.897 L 850.589 671.661 C 849.032 673.404 848.026 674.309 846.279 675.875 C 841.819 675.334 835.046 663.225 830.457 657.654 z"></path>
<path transform="translate(0,0)" fill="rgb(252,229,24)" d="M 412.831 1126.25 C 410.458 1129.89 407.859 1132.91 407.453 1137.08 C 408.629 1139.34 407.811 1138.53 409.717 1139.69 L 391.715 1147.81 C 394.281 1140.91 395.861 1136.72 399.244 1130.23 C 401.404 1132.01 400.269 1131.25 403.487 1131.77 C 407.838 1130.66 409.184 1129.11 412.831 1126.25 z"></path>
<path transform="translate(0,0)" fill="rgb(246,229,87)" d="M 1424.53 1127.31 L 1427.36 1132.86 C 1419.19 1138.32 1413.77 1141.7 1405.1 1146.26 C 1411.84 1139.91 1418.09 1133.99 1424.53 1127.31 z"></path>
<path transform="translate(0,0)" fill="rgb(211,176,46)" d="M 784.56 1542.5 C 788.086 1543.04 787.875 1542.44 790.218 1544.44 C 791.07 1548.07 788.404 1553.05 786.902 1556.79 L 785.722 1558.36 C 782.962 1554.66 784.183 1547.3 784.56 1542.5 z"></path>
<path transform="translate(0,0)" fill="rgb(164,16,12)" d="M 1248.45 570.508 C 1253.81 566.239 1258.82 561.939 1264.02 557.47 L 1267.97 559.126 C 1260.79 563.771 1256.09 566.815 1248.45 570.508 z"></path>
</svg>